<svg xmlns="http://www.w3.org/2000/svg" viewBox="0 0 800 500" width="800" height="500">
  <!-- Curvas de nível — ondulações acentuadas, tipo mapa topográfico real. Linhas NUNCA se cruzam. -->
  <g fill="none" stroke="#429B4D" stroke-linecap="round">
    <path d="M0,30 Q40,10 90,35 Q160,70 240,40 Q310,15 370,50 Q440,90 520,55 Q590,25 660,60 Q730,90 800,50" stroke-width="1.0" opacity="0.22"/>
    <path d="M0,60 Q45,38 100,65 Q175,100 255,68 Q325,40 390,78 Q460,118 540,82 Q610,50 680,88 Q745,118 800,78" stroke-width="1.2" opacity="0.26"/>
    <path d="M0,88 Q50,65 110,95 Q185,132 265,98 Q340,65 408,105 Q478,145 558,108 Q628,75 698,112 Q758,142 800,105" stroke-width="0.9" opacity="0.24"/>
    <path d="M0,115 Q55,90 120,122 Q198,162 278,125 Q352,90 425,132 Q498,172 578,135 Q648,100 718,138 Q772,165 800,132" stroke-width="1.4" opacity="0.30"/>
    <path d="M0,142 Q48,118 115,148 Q195,188 275,152 Q348,118 420,158 Q492,198 572,162 Q642,128 715,165 Q768,190 800,158" stroke-width="0.8" opacity="0.22"/>
    <path d="M0,168 Q52,142 125,175 Q205,218 285,178 Q358,142 432,185 Q508,228 588,188 Q658,152 730,192 Q778,218 800,185" stroke-width="1.3" opacity="0.28"/>
    <path d="M0,198 Q55,170 130,205 Q215,248 295,208 Q368,172 445,215 Q522,258 602,218 Q672,182 745,220 Q785,245 800,215" stroke-width="1.0" opacity="0.25"/>
    <path d="M0,228 Q48,200 125,232 Q210,275 290,235 Q362,198 438,242 Q515,285 595,245 Q665,208 738,248 Q782,272 800,242" stroke-width="1.5" opacity="0.32"/>
    <path d="M0,255 Q52,228 128,260 Q215,302 295,262 Q368,225 445,268 Q520,310 600,270 Q670,235 742,275 Q785,298 800,268" stroke-width="0.9" opacity="0.24"/>
    <path d="M0,282 Q55,255 132,288 Q220,330 300,290 Q375,252 452,295 Q528,338 608,298 Q678,262 748,302 Q788,325 800,295" stroke-width="1.2" opacity="0.28"/>
    <path d="M0,310 Q48,285 128,315 Q212,355 292,318 Q365,282 440,322 Q515,362 595,325 Q665,290 738,328 Q782,350 800,322" stroke-width="1.0" opacity="0.25"/>
    <path d="M0,340 Q52,312 135,345 Q222,388 302,348 Q378,310 455,352 Q532,395 612,355 Q682,318 752,358 Q790,380 800,352" stroke-width="1.4" opacity="0.30"/>
    <path d="M0,368 Q55,342 132,372 Q218,412 298,375 Q372,340 448,380 Q525,420 605,382 Q675,348 748,385 Q788,405 800,380" stroke-width="0.8" opacity="0.22"/>
    <path d="M0,398 Q48,372 128,400 Q212,440 292,402 Q365,368 440,408 Q515,448 595,410 Q665,375 738,412 Q782,435 800,408" stroke-width="1.2" opacity="0.26"/>
    <path d="M0,425 Q52,400 135,430 Q222,468 302,432 Q378,398 455,438 Q532,475 612,440 Q682,405 752,442 Q790,462 800,438" stroke-width="1.0" opacity="0.24"/>
    <path d="M0,455 Q55,430 132,458 Q218,495 298,460 Q372,428 448,465 Q525,500 605,468 Q675,435 748,468 Q788,488 800,465" stroke-width="1.3" opacity="0.27"/>
    <path d="M0,480 Q48,458 125,482 Q210,515 290,485 Q362,455 438,488 Q515,520 595,492 Q665,462 738,492 Q782,510 800,490" stroke-width="0.9" opacity="0.20"/>
  </g>
</svg>